<?xml version="1.0" standalone="no"?>
<!DOCTYPE svg PUBLIC "-//W3C//DTD SVG 20010904//EN"
 "http://www.w3.org/TR/2001/REC-SVG-20010904/DTD/svg10.dtd">
<svg version="1.0" xmlns="http://www.w3.org/2000/svg"
 width="218.000000pt" height="218.000000pt" viewBox="0 0 218.000000 218.000000"
 preserveAspectRatio="xMidYMid meet">
<g transform="translate(0.000000,218.000000) scale(0.050000,-0.050000)"
fill="#733ea8" stroke="none">
<path d="M1960 4341 c-1692 -173 -2527 -2137 -1488 -3502 234 -307 804 -700
1056 -727 24 -2 53 -10 65 -17 242 -150 1060 -89 1494 112 254 117 714 463
683 514 -6 9 0 23 13 31 15 9 18 5 8 -14 -30 -57 112 116 190 232 1019 1513
-206 3556 -2021 3371z m214 -383 c151 -73 231 -232 191 -383 -15 -58 -13 -80
8 -97 35 -30 29 -137 -7 -124 -21 8 -26 -73 -25 -407 l1 -417 248 503 c322
650 333 659 677 499 205 -95 250 -142 211 -217 -69 -133 -109 -140 -280 -54
-143 72 -218 102 -218 87 0 -6 57 -36 127 -68 181 -82 278 -143 259 -162 -9
-9 -105 29 -212 84 -108 55 -205 98 -216 94 -11 -4 68 -51 176 -106 235 -118
256 -132 226 -150 -12 -7 -116 35 -231 94 -115 59 -209 97 -209 85 0 -12 90
-64 200 -116 110 -51 200 -104 200 -118 0 -38 -16 -33 -227 77 -108 55 -203
95 -210 87 -7 -8 -2 -18 12 -23 78 -28 383 -186 394 -204 27 -44 -53 -20 -232
69 -101 49 -192 87 -203 84 -10 -4 78 -54 197 -112 148 -72 209 -111 195 -125
-14 -14 -85 11 -226 82 -112 56 -209 98 -214 92 -6 -5 85 -57 202 -116 116
-58 212 -112 212 -121 0 -33 -68 -11 -240 75 -99 50 -191 90 -205 89 -14 -1
72 -50 190 -110 118 -60 215 -118 215 -129 0 -35 -35 -23 -240 80 -110 55
-200 93 -200 84 0 -8 89 -60 199 -113 115 -57 202 -113 207 -133 7 -26 -43 -8
-210 75 -121 60 -225 105 -230 99 -6 -5 85 -57 202 -116 116 -58 212 -112 212
-121 0 -33 -68 -11 -242 76 -100 50 -190 88 -201 85 -11 -4 74 -52 190 -107
116 -54 212 -110 212 -124 1 -33 -31 -32 -96 4 -117 65 -343 171 -343 161 0
-5 83 -51 185 -102 102 -50 203 -109 225 -129 22 -21 74 -66 115 -100 110 -92
115 -132 115 -905 0 -1054 97 -974 -1187 -974 -1027 1 -1022 0 -1122 158 l-51
81 0 746 c0 816 0 812 127 917 44 37 210 82 237 65 45 -28 16 -167 -35 -167
-90 0 -149 -82 -149 -209 l0 -111 1000 0 1000 0 0 111 c0 145 -56 209 -183
209 -105 0 -157 -44 -157 -133 0 -37 -7 -68 -15 -69 -184 -28 -189 -21 -181
237 3 122 3 219 -1 215 -15 -15 -106 -183 -116 -215 -11 -32 -47 -35 -376 -35
-409 0 -428 -6 -449 -132 -12 -76 -15 -78 -92 -78 l-80 1 -6 187 c-6 216 -20
242 -191 361 -59 42 -146 112 -193 156 -73 70 -100 82 -196 90 -125 10 -234
101 -257 214 -10 50 -28 65 -110 92 -124 41 -116 79 16 79 78 0 112 11 164 55
102 85 188 71 318 -51 l65 -62 0 65 c0 128 104 243 220 243 185 0 328 -234
229 -375 -67 -96 -43 -261 63 -428 26 -41 50 -87 53 -101 3 -14 10 -30 16 -36
6 -5 27 -32 45 -59 32 -48 34 -27 34 422 0 395 -5 476 -30 497 -37 31 -38 49
-1 86 22 22 24 45 8 108 -70 276 234 511 497 384z"/>
<path d="M1846 3889 c-93 -73 -134 -226 -94 -355 10 -32 37 -35 274 -30 l263
6 15 87 c45 263 -253 454 -458 292z m112 -38 c-28 -48 -39 -96 -35 -153 5 -70
-1 -86 -36 -100 -24 -8 -49 -25 -56 -37 -32 -52 -71 -20 -71 58 0 104 47 200
126 256 94 67 120 58 72 -24z"/>
<path d="M2946 3536 c-68 -33 -217 -330 -171 -341 27 -7 22 -15 -25 -35 -45
-20 -52 -28 -26 -34 44 -11 -50 -218 -105 -232 -29 -8 -259 -433 -259 -479 0
-38 62 -9 88 40 15 30 51 76 78 101 30 28 46 61 40 83 -12 47 332 738 380 764
27 15 80 -2 220 -69 180 -87 185 -88 223 -52 41 39 -35 138 -106 138 -15 0
-23 12 -17 27 25 66 -224 136 -320 89z"/>
<path d="M1710 3420 c7 -12 136 -20 320 -20 184 0 313 8 320 20 8 13 -104 20
-320 20 -216 0 -328 -7 -320 -20z"/>
<path d="M1189 3331 c-69 -69 -65 -158 9 -233 71 -70 140 -74 199 -12 138 148
-65 387 -208 245z"/>
<path d="M2070 3219 c-99 -44 -205 -91 -235 -104 -50 -22 -55 -35 -55 -128 l0
-104 245 104 245 105 3 104 c3 124 19 122 -203 23z"/>
<path d="M755 3226 c-137 -36 -109 -290 35 -317 181 -34 254 216 89 302 -59
30 -65 31 -124 15z"/>
<path d="M1053 3053 c6 -37 1 -87 -12 -112 -20 -37 -16 -54 32 -117 120 -158
331 -295 355 -232 44 114 -87 352 -224 407 -36 15 -76 42 -90 60 -49 68 -72
66 -61 -6z"/>
<path d="M2170 2719 c-44 -21 -150 -70 -235 -108 -149 -67 -155 -72 -155 -138
0 -89 62 -84 311 26 l179 79 6 91 c7 102 5 103 -106 50z"/>
<path d="M2740 2511 c0 -15 202 -115 213 -105 5 5 -26 25 -67 44 -42 19 -92
43 -111 53 -19 10 -35 14 -35 8z"/>
<path d="M1080 1243 c0 -493 2 -520 41 -570 l42 -53 909 0 910 0 49 53 49 53
0 517 0 517 -1000 0 -1000 0 0 -517z m415 378 c16 0 25 -31 25 -81 l0 -80
-110 0 -110 0 0 77 c0 96 10 105 99 95 39 -5 82 -10 96 -11z m320 1 c83 -3 65
-155 -20 -165 -131 -14 -155 -2 -155 83 0 78 25 100 100 88 17 -3 50 -6 75 -6z
m350 0 c27 -2 35 -20 35 -82 l0 -80 -110 0 -110 0 0 79 c0 81 21 98 110 88 22
-2 56 -4 75 -5z m339 0 c25 -2 33 -18 29 -67 -6 -98 -20 -108 -127 -96 -156
18 -156 181 -1 169 36 -2 80 -5 99 -6z m321 0 c39 -2 53 -153 15 -165 -100
-34 -200 8 -200 84 0 79 21 96 110 86 22 -2 56 -4 75 -5z m-1309 -407 l-6 -84
-100 2 -100 2 -6 82 -6 83 112 0 112 0 -6 -85z m344 8 c0 -139 -206 -145 -216
-6 l-6 83 111 0 111 0 0 -77z m340 -3 c0 -144 -206 -147 -216 -3 l-6 83 111 0
111 0 0 -80z m336 -5 c4 -41 -1 -76 -10 -78 -168 -27 -226 -9 -226 71 0 87 11
95 129 88 l101 -6 6 -75z m324 7 c0 -96 -21 -105 -205 -84 -19 2 -20 130 -2
149 8 7 57 13 110 13 l97 0 0 -78z m-1344 -337 l6 -85 -111 0 -111 0 0 77 c0
98 10 106 119 99 l91 -6 6 -85z m340 0 l6 -85 -111 0 -111 0 0 77 c0 98 10
106 119 99 l91 -6 6 -85z m340 0 l6 -85 -111 0 -111 0 0 91 0 91 105 -6 105
-6 6 -85z"/>
</g>
</svg>
